<svg width="21" height="20" viewBox="0 0 21 20" fill="none" xmlns="http://www.w3.org/2000/svg">
<path d="M9.60461 0C8.22571 0 7.10461 1.12109 7.10461 2.5V11.25C7.10461 12.6289 8.22571 13.75 9.60461 13.75H18.3546C19.7335 13.75 20.8546 12.6289 20.8546 11.25V2.5C20.8546 1.12109 19.7335 0 18.3546 0H9.60461ZM3.35461 6.25C1.97571 6.25 0.854614 7.37109 0.854614 8.75V17.5C0.854614 18.8789 1.97571 20 3.35461 20H12.1046C13.4835 20 14.6046 18.8789 14.6046 17.5V15H12.7296V17.5C12.7296 17.8438 12.4484 18.125 12.1046 18.125H3.35461C3.01086 18.125 2.72961 17.8438 2.72961 17.5V8.75C2.72961 8.40625 3.01086 8.125 3.35461 8.125H5.85461V6.25H3.35461Z" fill="white"/>
</svg>
