<svg width="30" height="30" viewBox="0 0 30 30" fill="none" xmlns="http://www.w3.org/2000/svg">
<path d="M11.3517 17.9136C10.2677 17.9136 9.37456 16.9641 9.37456 15.7979C9.37456 14.6318 10.2504 13.6822 11.3517 13.6822C12.4616 13.6822 13.3462 14.64 13.3289 15.7979C13.3289 16.9641 12.453 17.9136 11.3517 17.9136Z" fill="white"/>
<path d="M18.6619 17.9136C17.5779 17.9136 16.6848 16.9641 16.6848 15.7979C16.6848 14.6318 17.5606 13.6822 18.6619 13.6822C19.7719 13.6822 20.6564 14.64 20.639 15.7979C20.639 16.9641 19.7719 17.9136 18.6619 17.9136Z" fill="white"/>
<path fill-rule="evenodd" clip-rule="evenodd" d="M2.10875 2.10875C0 4.2175 0 7.6119 0 14.4V15.6C0 22.3881 0 25.7825 2.10875 27.8912C4.2175 30 7.6119 30 14.4 30H15.6C22.3881 30 25.7825 30 27.8912 27.8912C30 25.7825 30 22.3881 30 15.6V14.4C30 7.6119 30 4.2175 27.8912 2.10875C25.7825 0 22.3881 0 15.6 0H14.4C7.6119 0 4.2175 0 2.10875 2.10875ZM22.624 8.32631C22.6363 8.33114 22.6465 8.34 22.6526 8.35131C25.137 11.8381 26.3641 15.7713 25.9052 20.2992C25.9043 20.3088 25.9013 20.318 25.8964 20.3263C25.8914 20.3347 25.8847 20.3419 25.8766 20.3475C24.2138 21.5231 22.3529 22.4191 20.3743 22.997C20.3603 23.0011 20.3453 23.0009 20.3314 22.9964C20.3176 22.9919 20.3056 22.9834 20.2971 22.972C19.8786 22.4179 19.5033 21.8352 19.1741 21.2286C19.1696 21.2203 19.167 21.2111 19.1664 21.2016C19.1659 21.1922 19.1674 21.1828 19.171 21.174C19.1745 21.1652 19.1799 21.1572 19.1869 21.1506C19.1939 21.1439 19.2023 21.1387 19.2115 21.1354C19.8058 20.9221 20.3802 20.6613 20.9285 20.3557C20.9384 20.3501 20.9468 20.3422 20.9527 20.3327C20.9587 20.3232 20.9621 20.3125 20.9627 20.3015C20.9633 20.2904 20.9611 20.2794 20.9562 20.2694C20.9512 20.2594 20.9438 20.2507 20.9346 20.2441C20.8184 20.1616 20.703 20.075 20.5929 19.9884C20.5829 19.9806 20.5709 19.9757 20.5581 19.9743C20.5454 19.9728 20.5325 19.9748 20.5209 19.9801C16.9631 21.5485 13.0651 21.5485 9.46473 19.9801C9.45317 19.9751 9.44038 19.9733 9.42782 19.975C9.41526 19.9766 9.40343 19.9815 9.39364 19.9892C9.28353 20.0758 9.16814 20.1616 9.05283 20.2441C9.04361 20.2508 9.03625 20.2595 9.03141 20.2696C9.02658 20.2796 9.0244 20.2906 9.02509 20.3017C9.02577 20.3127 9.02929 20.3234 9.03534 20.3328C9.04138 20.3423 9.04977 20.3501 9.05975 20.3557C9.60931 20.6587 10.1832 20.9197 10.7759 21.1362C10.7851 21.1394 10.7936 21.1445 10.8006 21.151C10.8076 21.1576 10.8131 21.1655 10.8167 21.1742C10.8203 21.183 10.8219 21.1923 10.8215 21.2017C10.821 21.2111 10.8185 21.2203 10.814 21.2286C10.4903 21.8386 10.1144 22.422 9.6902 22.973C9.68145 22.9841 9.66937 22.9923 9.65557 22.9966C9.64177 23.0009 9.62692 23.0011 9.61301 22.9971C7.63788 22.4172 5.7803 21.5213 4.11954 20.3475C4.11156 20.3416 4.10492 20.3342 4.1 20.3257C4.09508 20.3173 4.09199 20.308 4.09091 20.2984C3.70763 16.3818 4.48894 12.4161 7.34105 8.35049C7.34802 8.33972 7.35833 8.33129 7.37053 8.32635C8.79673 7.70112 10.3021 7.25563 11.8487 7.00109C11.8627 6.99898 11.8771 7.00095 11.8899 7.00675C11.9028 7.01255 11.9135 7.0219 11.9207 7.03359C12.1303 7.38766 12.3194 7.7525 12.4869 8.12645C14.1539 7.88491 15.8495 7.88491 17.5165 8.12645C17.6829 7.75345 17.869 7.3887 18.074 7.03359C18.0809 7.02164 18.0915 7.01207 18.1044 7.00623C18.1174 7.0004 18.1319 6.9986 18.1459 7.00109C19.6924 7.25616 21.1976 7.70162 22.624 8.32631ZM11.3517 17.9136C10.2677 17.9136 9.37456 16.9641 9.37456 15.7979C9.37456 14.6318 10.2504 13.6822 11.3517 13.6822C12.4616 13.6822 13.3462 14.64 13.3289 15.7979C13.3289 16.9641 12.453 17.9136 11.3517 17.9136ZM18.6619 17.9136C17.5779 17.9136 16.6848 16.9641 16.6848 15.7979C16.6848 14.6318 17.5606 13.6822 18.6619 13.6822C19.7719 13.6822 20.6564 14.64 20.639 15.7979C20.639 16.9641 19.7719 17.9136 18.6619 17.9136Z" fill="white"/>
</svg>
