<svg width="24" height="19" viewBox="0 0 24 19" fill="none" xmlns="http://www.w3.org/2000/svg">
<path d="M20.2178 2.02022C20.2112 2.0075 20.2004 1.99753 20.1871 1.9921C18.6554 1.28932 17.0389 0.788182 15.3783 0.501229C15.3632 0.498424 15.3476 0.500448 15.3337 0.507012C15.3199 0.513576 15.3084 0.524347 15.301 0.537792C15.0809 0.937284 14.8811 1.34763 14.7024 1.76726C12.9123 1.49552 11.0914 1.49552 9.30131 1.76726C9.12137 1.34656 8.91836 0.936116 8.6932 0.537792C8.68548 0.524639 8.67397 0.514116 8.66018 0.507595C8.6464 0.501073 8.63096 0.498855 8.6159 0.501229C6.95506 0.78758 5.33853 1.28875 3.80699 1.99214C3.79388 1.9977 3.78282 2.00719 3.77533 2.0193C0.71255 6.59316 -0.126462 11.0546 0.285129 15.4607C0.286287 15.4715 0.289604 15.482 0.294885 15.4915C0.300165 15.501 0.3073 15.5093 0.315865 15.516C2.09929 16.8365 4.09408 17.8444 6.2151 18.4968C6.23004 18.5013 6.24599 18.5011 6.26081 18.4962C6.27562 18.4913 6.2886 18.4821 6.29799 18.4696C6.75354 17.8498 7.15719 17.1934 7.50484 16.5072C7.50961 16.4978 7.51234 16.4875 7.51284 16.4769C7.51334 16.4664 7.51159 16.4558 7.50773 16.446C7.50386 16.4362 7.49795 16.4273 7.4904 16.4199C7.48284 16.4126 7.47381 16.4069 7.46389 16.4032C6.82737 16.1597 6.21113 15.8661 5.62098 15.5252C5.61026 15.5189 5.60125 15.5101 5.59476 15.4995C5.58827 15.4888 5.58449 15.4768 5.58376 15.4644C5.58302 15.452 5.58535 15.4396 5.59055 15.4283C5.59575 15.417 5.60364 15.4071 5.61355 15.3996C5.73738 15.3068 5.86129 15.2103 5.97953 15.1129C5.99004 15.1042 6.00275 15.0987 6.01624 15.0968C6.02973 15.095 6.04345 15.097 6.05587 15.1026C9.92223 16.8671 14.1081 16.8671 17.9287 15.1026C17.9411 15.0966 17.955 15.0944 17.9687 15.096C17.9824 15.0977 17.9953 15.1032 18.006 15.1119C18.1243 15.2094 18.2481 15.3068 18.3729 15.3996C18.3828 15.4071 18.3908 15.4168 18.3961 15.4281C18.4014 15.4393 18.4038 15.4517 18.4031 15.4641C18.4025 15.4766 18.3988 15.4886 18.3924 15.4993C18.386 15.5099 18.3771 15.5188 18.3664 15.5252C17.7776 15.869 17.1608 16.1624 16.5226 16.4023C16.5127 16.4061 16.5037 16.4119 16.4962 16.4194C16.4887 16.4269 16.4828 16.4359 16.479 16.4458C16.4752 16.4557 16.4736 16.4663 16.4742 16.4769C16.4747 16.4874 16.4775 16.4978 16.4824 16.5072C16.8359 17.1896 17.2389 17.8451 17.6883 18.4685C17.6974 18.4813 17.7104 18.4909 17.7252 18.496C17.7401 18.501 17.7562 18.5013 17.7712 18.4967C19.896 17.8465 21.8943 16.8385 23.68 15.516C23.6887 15.5096 23.6959 15.5015 23.7012 15.4921C23.7065 15.4828 23.7097 15.4724 23.7107 15.4616C24.2035 10.3677 22.8858 5.94283 20.2178 2.02022ZM8.08224 12.7778C6.91819 12.7778 5.95904 11.7096 5.95904 10.3977C5.95904 9.08577 6.89958 8.01746 8.08224 8.01746C9.27414 8.01746 10.224 9.09505 10.2054 10.3976C10.2054 11.7096 9.26482 12.7778 8.08224 12.7778ZM15.9324 12.7778C14.7683 12.7778 13.8092 11.7096 13.8092 10.3977C13.8092 9.08577 14.7497 8.01746 15.9324 8.01746C17.1243 8.01746 18.0742 9.09505 18.0556 10.3976C18.0556 11.7096 17.1243 12.7778 15.9324 12.7778Z" fill="#4B40FF"/>
</svg>
